# xmcd CD database file
#
# Track frame offsets:
#	150
#	8887
#	18477
#	28342
#	36387
#	45492
#	57562
#	70227
#	82157
#	91530
#	101760
#	110640
#	119055
#	128077
#	139020
#	148962
#	159027
#	170415
#	179230
#	189962
#	201587
#	214115
#	222440
#	233605
#	242957
#	253397
#	263790
#	272437
#	280412
#
# Disc length: 3860 seconds
#
# Revision: 3
# Processed by: cddbd v1.4PL0 Copyright (c) Steve Scherf et al.
# Submitted via: CDex 1.50Beta5
#
DISCID=c40f121d
DTITLE=Roger Miller - King Of The Road
DYEAR=1900
DGENRE=Country
TTITLE0=You're Part Of Me
TTITLE1=Fair Swiss Maiden
TTITLE2=Every Which-A-Way
TTITLE3=It Happened Just That Way
TTITLE4=I Get Up Early In The Morning
TTITLE5=I Catch Myself Crying
TTITLE6=I'll Be Somewhere
TTITLE7=Little Green Apples
TTITLE8=I Know Who It Is (And I'm Gonna Tell On Him)
TTITLE9=But I Love You More
TTITLE10=If You Want Me To
TTITLE11=Burma Shave
TTITLE12=Roger Millerv - You Don't Want My Love
TTITLE13=Sorry Willie
TTITLE14=You Can't Do Me This Way (And Get By With It)
TTITLE15=When Two Worlds Collide
TTITLE16=Lock, Stock And Teardrops
TTITLE17=Trouble On The Turnpike
TTITLE18=Hey Little Star
TTITLE19=Footprints In The Snow
TTITLE20=Hitch-Hiker
TTITLE21=Dang Me
TTITLE22=King Of The Road
TTITLE23=Chug-A-Lug
TTITLE24=Engine, Engine #9
TTITLE25=Kansas City Star
TTITLE26=England Swings
TTITLE27=Do-Wacka-Do
TTITLE28=One Dyin' And A Buryin'
EXTD=
EXTT0=
EXTT1=
EXTT2=
EXTT3=
EXTT4=
EXTT5=
EXTT6=
EXTT7=
EXTT8=
EXTT9=
EXTT10=
EXTT11=
EXTT12=
EXTT13=
EXTT14=
EXTT15=
EXTT16=
EXTT17=
EXTT18=
EXTT19=
EXTT20=
EXTT21=
EXTT22=
EXTT23=
EXTT24=
EXTT25=
EXTT26=
EXTT27=
EXTT28=
PLAYORDER=
